<?xml version="1.0" encoding="iso-8859-1"?>
<!-- Uploaded to: SVG Repo, www.svgrepo.com, Generator: SVG Repo Mixer Tools -->
<svg fill="#ffffff" height="800px" width="800px" version="1.1" id="Layer_1" xmlns="http://www.w3.org/2000/svg" xmlns:xlink="http://www.w3.org/1999/xlink" 
	 viewBox="0 0 512.001 512.001" xml:space="preserve">
<g>
	<g>
		<path d="M320.522,122.234l-15.021-0.082l-0.618,15.011c-0.007,0.13-0.761,13.214-7.644,25.611
			c-8.36,15.059-21.849,22.378-41.184,22.378c-17.966-0.064-31.049-7.534-39.996-22.838c-7.419-12.69-9.004-25.99-9.011-26.051
			l-1.466-14.028H0v15.656c0,68.2,26.675,131.816,75.112,179.127c48.082,46.966,112.323,72.831,180.889,72.831
			s132.805-25.865,180.888-72.831c48.437-47.312,75.112-110.927,75.112-179.128v-15.656H320.522z M178.754,153.545
			c1.853,6.668,4.845,14.995,9.621,23.436c14.555,25.724,37.92,39.377,67.625,39.482c39.755,0,59.627-21.614,69.298-39.747
			c4.426-8.3,7.055-16.498,8.615-23.17h127.152c-22.58,35.357-51.852,64.483-85.735,85.074
			c-38.639,23.484-82.367,35.568-126.377,34.9c-42.267-0.624-83.402-13.065-118.959-35.976
			c-32.076-20.67-58.744-48.864-79.528-83.998H178.754z M415.01,294.619c-42.199,41.218-98.67,63.919-159.01,63.919
			s-116.811-22.701-159.011-63.919c-29.329-28.648-49.523-64.151-59.175-103.1c20.847,29.293,46.013,53.525,75.22,72.346
			c40.485,26.088,87.325,40.252,135.455,40.964c1.283,0.019,2.564,0.028,3.847,0.028c48.629,0,96.697-13.614,139.255-39.479
			c31.932-19.407,60.155-45.487,83.284-76.705C465.516,228.739,445.053,265.274,415.01,294.619z"/>
	</g>
</g>
</svg>